<svg width="361" height="364" fill="none" xmlns="http://www.w3.org/2000/svg"><path d="M231.501 200.341c2.037 0 9.675 3.449 22.915 10.346 13.239 6.898 20.251 11.052 21.035 12.463.313.784.47 1.959.47 3.527 0 5.173-1.332 11.13-3.996 17.871-2.507 6.113-8.069 11.247-16.687 15.402-8.617 4.154-16.608 6.231-23.972 6.231-8.931 0-23.816-4.86-44.655-14.579-15.355-7.054-28.673-16.303-39.955-27.747-11.281-11.443-22.876-25.944-34.784-43.501-11.281-16.773-16.843-31.979-16.686-45.618v-1.881c.47-14.265 6.267-26.649 17.391-37.152 3.761-3.449 7.835-5.173 12.222-5.173.94 0 2.35.117 4.23.352 1.881.236 3.369.353 4.466.353 2.977 0 5.053.51 6.228 1.529 1.175 1.019 2.389 3.174 3.643 6.466 1.253 3.135 3.839 10.033 7.756 20.692 3.917 10.66 5.875 16.539 5.875 17.636 0 3.292-2.702 7.799-8.108 13.521-5.406 5.722-8.108 9.366-8.108 10.934 0 1.097.391 2.273 1.175 3.527 5.327 11.444 13.318 22.182 23.972 32.215 8.775 8.308 20.604 16.224 35.489 23.749 1.881 1.097 3.604 1.646 5.171 1.646 2.35 0 6.581-3.802 12.691-11.405 6.111-7.602 10.185-11.404 12.222-11.404zM183.79 324.966c19.899 0 38.976-3.919 57.229-11.757 18.254-7.838 33.961-18.341 47.123-31.509 13.161-13.168 23.659-28.883 31.493-47.146 7.835-18.262 11.752-37.348 11.752-57.257s-3.917-38.994-11.752-57.257c-7.834-18.263-18.332-33.978-31.493-47.146-13.162-13.168-28.869-23.67-47.123-31.509-18.253-7.838-37.33-11.757-57.229-11.757s-38.975 3.919-57.228 11.757c-18.254 7.838-33.962 18.341-47.123 31.51-13.162 13.167-23.66 28.882-31.494 47.145s-11.751 37.348-11.751 57.257c0 31.823 9.401 60.667 28.203 86.532L45.83 318.618l56.876-18.106c24.756 16.303 51.784 24.454 81.084 24.454zM183.79 0c23.973 0 46.888 4.703 68.745 14.108 21.858 9.406 40.699 22.025 56.524 37.858 15.825 15.833 28.438 34.684 37.839 56.552C356.299 130.386 361 153.313 361 177.297c0 23.985-4.701 46.911-14.102 68.779-9.401 21.868-22.014 40.719-37.839 56.552-15.825 15.833-34.666 28.452-56.524 37.858-21.857 9.405-44.772 14.108-68.745 14.108-30.553 0-59.148-7.367-85.784-22.103L0 364l31.963-95.233c-16.921-27.903-25.382-58.393-25.382-91.47 0-23.984 4.7-46.911 14.101-68.779 9.401-21.868 22.014-40.719 37.84-56.552 15.825-15.833 34.666-28.452 56.523-37.858C136.903 4.704 159.818 0 183.79 0z" fill="#00D254"/></svg>